<?xml version="1.0" standalone="no"?>
<!DOCTYPE svg PUBLIC "-//W3C//DTD SVG 20010904//EN"
 "http://www.w3.org/TR/2001/REC-SVG-20010904/DTD/svg10.dtd">
<svg version="1.0" xmlns="http://www.w3.org/2000/svg"
 width="152.000000pt" height="152.000000pt" viewBox="0 0 152.000000 152.000000"
 preserveAspectRatio="xMidYMid meet">
<metadata>
Created by potrace 1.14, written by Peter Selinger 2001-2017
</metadata>
<g transform="translate(0.000000,152.000000) scale(0.100000,-0.100000)"
fill="#000000" stroke="none">
<path d="M10 1340 c0 -20 7 -20 380 -20 l380 0 0 -580 0 -580 -380 0 c-373 0
-380 0 -380 -20 0 -20 7 -20 400 -20 l400 0 0 300 0 300 355 0 c348 0 355 0
355 20 0 20 -7 20 -355 20 l-355 0 0 300 0 300 -400 0 c-393 0 -400 0 -400
-20z"/>
</g>
</svg>
